<mxfile host="app.diagrams.net" modified="2021-08-11T06:16:10.625Z" agent="5.0 (Macintosh; Intel Mac OS X 10_15_7) AppleWebKit/605.1.15 (KHTML, like Gecko) Version/14.1.2 Safari/605.1.15" etag="rUpEh2OnnoZeD5mwfaE-" version="14.9.6" type="github">
  <diagram id="w4ctMmDlvZ0DfHKrHSLn" name="Page-1">
    <mxGraphModel dx="888" dy="534" grid="1" gridSize="10" guides="1" tooltips="1" connect="1" arrows="1" fold="1" page="1" pageScale="1" pageWidth="850" pageHeight="1100" math="0" shadow="0">
      <root>
        <mxCell id="0" />
        <mxCell id="1" parent="0" />
        <mxCell id="c48P02yQ9ACMctOEPkxW-1" value="AWS Cloud" style="points=[[0,0],[0.25,0],[0.5,0],[0.75,0],[1,0],[1,0.25],[1,0.5],[1,0.75],[1,1],[0.75,1],[0.5,1],[0.25,1],[0,1],[0,0.75],[0,0.5],[0,0.25]];outlineConnect=0;gradientColor=none;html=1;whiteSpace=wrap;fontSize=12;fontStyle=0;shape=mxgraph.aws4.group;grIcon=mxgraph.aws4.group_aws_cloud_alt;strokeColor=#232F3E;fillColor=none;verticalAlign=top;align=left;spacingLeft=30;fontColor=#232F3E;dashed=0;sketch=1;shadow=0;" parent="1" vertex="1">
          <mxGeometry x="30" y="120" width="1050" height="910" as="geometry" />
        </mxCell>
        <mxCell id="RL7Do_4wdzDzw9Vl6xJa-1" value="None - RoutaleVPC" style="points=[[0,0],[0.25,0],[0.5,0],[0.75,0],[1,0],[1,0.25],[1,0.5],[1,0.75],[1,1],[0.75,1],[0.5,1],[0.25,1],[0,1],[0,0.75],[0,0.5],[0,0.25]];outlineConnect=0;gradientColor=none;html=1;whiteSpace=wrap;fontSize=12;fontStyle=0;shape=mxgraph.aws4.group;grIcon=mxgraph.aws4.group_vpc;strokeColor=#248814;fillColor=none;verticalAlign=top;align=left;spacingLeft=30;fontColor=#AAB7B8;dashed=0;sketch=1;" vertex="1" parent="1">
          <mxGeometry x="90" y="770" width="720" height="190" as="geometry" />
        </mxCell>
        <mxCell id="c48P02yQ9ACMctOEPkxW-14" value="&lt;b&gt;RDS(Oracle)&lt;/b&gt;" style="outlineConnect=0;fontColor=#232F3E;gradientColor=none;fillColor=#3334B9;strokeColor=none;dashed=0;verticalLabelPosition=bottom;verticalAlign=top;align=center;html=1;fontSize=12;fontStyle=0;aspect=fixed;pointerEvents=1;shape=mxgraph.aws4.rds_instance;" parent="1" vertex="1">
          <mxGeometry x="389" y="820" width="78" height="78" as="geometry" />
        </mxCell>
        <mxCell id="c48P02yQ9ACMctOEPkxW-2" value="Routale VPC" style="points=[[0,0],[0.25,0],[0.5,0],[0.75,0],[1,0],[1,0.25],[1,0.5],[1,0.75],[1,1],[0.75,1],[0.5,1],[0.25,1],[0,1],[0,0.75],[0,0.5],[0,0.25]];outlineConnect=0;gradientColor=none;html=1;whiteSpace=wrap;fontSize=12;fontStyle=0;shape=mxgraph.aws4.group;grIcon=mxgraph.aws4.group_vpc;strokeColor=#248814;fillColor=none;verticalAlign=top;align=left;spacingLeft=30;fontColor=#AAB7B8;dashed=0;sketch=1;" parent="1" vertex="1">
          <mxGeometry x="90" y="180" width="720" height="470" as="geometry" />
        </mxCell>
        <mxCell id="c48P02yQ9ACMctOEPkxW-4" value="Availability Zone" style="fillColor=none;verticalAlign=top;fontStyle=0;fontColor=#147EBA;sketch=1;shadow=1;rounded=0;" parent="1" vertex="1">
          <mxGeometry x="99" y="420" width="322" height="160" as="geometry" />
        </mxCell>
        <mxCell id="c48P02yQ9ACMctOEPkxW-5" value="&lt;b&gt;Fronted (EC2)&lt;/b&gt;" style="points=[[0,0,0],[0.25,0,0],[0.5,0,0],[0.75,0,0],[1,0,0],[0,1,0],[0.25,1,0],[0.5,1,0],[0.75,1,0],[1,1,0],[0,0.25,0],[0,0.5,0],[0,0.75,0],[1,0.25,0],[1,0.5,0],[1,0.75,0]];outlineConnect=0;fontColor=#232F3E;gradientColor=#F78E04;gradientDirection=north;fillColor=#D05C17;strokeColor=#ffffff;dashed=0;verticalLabelPosition=bottom;verticalAlign=top;align=center;html=1;fontSize=12;fontStyle=0;aspect=fixed;shape=mxgraph.aws4.resourceIcon;resIcon=mxgraph.aws4.ec2;" parent="1" vertex="1">
          <mxGeometry x="131" y="460" width="78" height="78" as="geometry" />
        </mxCell>
        <mxCell id="c48P02yQ9ACMctOEPkxW-7" value="&lt;b&gt;Backend (EC2)&lt;/b&gt;" style="points=[[0,0,0],[0.25,0,0],[0.5,0,0],[0.75,0,0],[1,0,0],[0,1,0],[0.25,1,0],[0.5,1,0],[0.75,1,0],[1,1,0],[0,0.25,0],[0,0.5,0],[0,0.75,0],[1,0.25,0],[1,0.5,0],[1,0.75,0]];outlineConnect=0;fontColor=#232F3E;gradientColor=#F78E04;gradientDirection=north;fillColor=#D05C17;strokeColor=#ffffff;dashed=0;verticalLabelPosition=bottom;verticalAlign=top;align=center;html=1;fontSize=12;fontStyle=0;aspect=fixed;shape=mxgraph.aws4.resourceIcon;resIcon=mxgraph.aws4.ec2;" parent="1" vertex="1">
          <mxGeometry x="311" y="460" width="78" height="78" as="geometry" />
        </mxCell>
        <mxCell id="c48P02yQ9ACMctOEPkxW-8" value="" style="edgeStyle=orthogonalEdgeStyle;html=1;endArrow=block;elbow=vertical;startArrow=block;startFill=1;endFill=1;strokeColor=#545B64;rounded=0;entryX=0;entryY=0.5;entryDx=0;entryDy=0;entryPerimeter=0;sketch=1;" parent="1" source="c48P02yQ9ACMctOEPkxW-5" target="c48P02yQ9ACMctOEPkxW-7" edge="1">
          <mxGeometry width="100" relative="1" as="geometry">
            <mxPoint x="211" y="500" as="sourcePoint" />
            <mxPoint x="311" y="500" as="targetPoint" />
          </mxGeometry>
        </mxCell>
        <mxCell id="c48P02yQ9ACMctOEPkxW-9" value="Availability Zone" style="fillColor=none;verticalAlign=top;fontStyle=0;fontColor=#147EBA;sketch=1;shadow=1;rounded=0;" parent="1" vertex="1">
          <mxGeometry x="441" y="420" width="322" height="160" as="geometry" />
        </mxCell>
        <mxCell id="c48P02yQ9ACMctOEPkxW-10" value="&lt;b&gt;Fronted (EC2)&lt;/b&gt;" style="points=[[0,0,0],[0.25,0,0],[0.5,0,0],[0.75,0,0],[1,0,0],[0,1,0],[0.25,1,0],[0.5,1,0],[0.75,1,0],[1,1,0],[0,0.25,0],[0,0.5,0],[0,0.75,0],[1,0.25,0],[1,0.5,0],[1,0.75,0]];outlineConnect=0;fontColor=#232F3E;gradientColor=#F78E04;gradientDirection=north;fillColor=#D05C17;strokeColor=#ffffff;dashed=0;verticalLabelPosition=bottom;verticalAlign=top;align=center;html=1;fontSize=12;fontStyle=0;aspect=fixed;shape=mxgraph.aws4.resourceIcon;resIcon=mxgraph.aws4.ec2;" parent="1" vertex="1">
          <mxGeometry x="473" y="460" width="78" height="78" as="geometry" />
        </mxCell>
        <mxCell id="c48P02yQ9ACMctOEPkxW-11" value="&lt;b&gt;Backend (EC2)&lt;/b&gt;" style="points=[[0,0,0],[0.25,0,0],[0.5,0,0],[0.75,0,0],[1,0,0],[0,1,0],[0.25,1,0],[0.5,1,0],[0.75,1,0],[1,1,0],[0,0.25,0],[0,0.5,0],[0,0.75,0],[1,0.25,0],[1,0.5,0],[1,0.75,0]];outlineConnect=0;fontColor=#232F3E;gradientColor=#F78E04;gradientDirection=north;fillColor=#D05C17;strokeColor=#ffffff;dashed=0;verticalLabelPosition=bottom;verticalAlign=top;align=center;html=1;fontSize=12;fontStyle=0;aspect=fixed;shape=mxgraph.aws4.resourceIcon;resIcon=mxgraph.aws4.ec2;" parent="1" vertex="1">
          <mxGeometry x="653" y="460" width="78" height="78" as="geometry" />
        </mxCell>
        <mxCell id="c48P02yQ9ACMctOEPkxW-12" value="" style="edgeStyle=orthogonalEdgeStyle;html=1;endArrow=block;elbow=vertical;startArrow=block;startFill=1;endFill=1;strokeColor=#545B64;rounded=0;entryX=0;entryY=0.5;entryDx=0;entryDy=0;entryPerimeter=0;sketch=1;" parent="1" source="c48P02yQ9ACMctOEPkxW-10" target="c48P02yQ9ACMctOEPkxW-11" edge="1">
          <mxGeometry width="100" relative="1" as="geometry">
            <mxPoint x="553" y="500" as="sourcePoint" />
            <mxPoint x="653" y="500" as="targetPoint" />
          </mxGeometry>
        </mxCell>
        <mxCell id="c48P02yQ9ACMctOEPkxW-13" value="" style="fillColor=none;verticalAlign=top;fontStyle=0;fontColor=#5A6C86;sketch=1;shadow=1;rounded=0;direction=south;" parent="1" vertex="1">
          <mxGeometry x="880" y="180" width="130" height="780" as="geometry" />
        </mxCell>
        <mxCell id="c48P02yQ9ACMctOEPkxW-15" value="&lt;b&gt;S3&lt;/b&gt;" style="points=[[0,0,0],[0.25,0,0],[0.5,0,0],[0.75,0,0],[1,0,0],[0,1,0],[0.25,1,0],[0.5,1,0],[0.75,1,0],[1,1,0],[0,0.25,0],[0,0.5,0],[0,0.75,0],[1,0.25,0],[1,0.5,0],[1,0.75,0]];outlineConnect=0;fontColor=#232F3E;gradientColor=#60A337;gradientDirection=north;fillColor=#277116;strokeColor=#ffffff;dashed=0;verticalLabelPosition=bottom;verticalAlign=top;align=center;html=1;fontSize=12;fontStyle=0;aspect=fixed;shape=mxgraph.aws4.resourceIcon;resIcon=mxgraph.aws4.s3;" parent="1" vertex="1">
          <mxGeometry x="906" y="830" width="78" height="78" as="geometry" />
        </mxCell>
        <mxCell id="c48P02yQ9ACMctOEPkxW-16" value="&lt;b&gt;Cloudwatch&lt;/b&gt;" style="points=[[0,0,0],[0.25,0,0],[0.5,0,0],[0.75,0,0],[1,0,0],[0,1,0],[0.25,1,0],[0.5,1,0],[0.75,1,0],[1,1,0],[0,0.25,0],[0,0.5,0],[0,0.75,0],[1,0.25,0],[1,0.5,0],[1,0.75,0]];points=[[0,0,0],[0.25,0,0],[0.5,0,0],[0.75,0,0],[1,0,0],[0,1,0],[0.25,1,0],[0.5,1,0],[0.75,1,0],[1,1,0],[0,0.25,0],[0,0.5,0],[0,0.75,0],[1,0.25,0],[1,0.5,0],[1,0.75,0]];outlineConnect=0;fontColor=#232F3E;gradientColor=#F34482;gradientDirection=north;fillColor=#BC1356;strokeColor=#ffffff;dashed=0;verticalLabelPosition=bottom;verticalAlign=top;align=center;html=1;fontSize=12;fontStyle=0;aspect=fixed;shape=mxgraph.aws4.resourceIcon;resIcon=mxgraph.aws4.cloudwatch_2;" parent="1" vertex="1">
          <mxGeometry x="906" y="700" width="78" height="78" as="geometry" />
        </mxCell>
        <mxCell id="c48P02yQ9ACMctOEPkxW-17" value="&lt;b&gt;ELB&lt;/b&gt;" style="points=[[0,0,0],[0.25,0,0],[0.5,0,0],[0.75,0,0],[1,0,0],[0,1,0],[0.25,1,0],[0.5,1,0],[0.75,1,0],[1,1,0],[0,0.25,0],[0,0.5,0],[0,0.75,0],[1,0.25,0],[1,0.5,0],[1,0.75,0]];outlineConnect=0;fontColor=#232F3E;gradientColor=#945DF2;gradientDirection=north;fillColor=#5A30B5;strokeColor=#ffffff;dashed=0;verticalLabelPosition=bottom;verticalAlign=top;align=center;html=1;fontSize=12;fontStyle=0;aspect=fixed;shape=mxgraph.aws4.resourceIcon;resIcon=mxgraph.aws4.elastic_load_balancing;" parent="1" vertex="1">
          <mxGeometry x="220" y="220" width="78" height="78" as="geometry" />
        </mxCell>
        <mxCell id="c48P02yQ9ACMctOEPkxW-18" value="&lt;b&gt;ELB&lt;/b&gt;" style="points=[[0,0,0],[0.25,0,0],[0.5,0,0],[0.75,0,0],[1,0,0],[0,1,0],[0.25,1,0],[0.5,1,0],[0.75,1,0],[1,1,0],[0,0.25,0],[0,0.5,0],[0,0.75,0],[1,0.25,0],[1,0.5,0],[1,0.75,0]];outlineConnect=0;fontColor=#232F3E;gradientColor=#945DF2;gradientDirection=north;fillColor=#5A30B5;strokeColor=#ffffff;dashed=0;verticalLabelPosition=bottom;verticalAlign=top;align=center;html=1;fontSize=12;fontStyle=0;aspect=fixed;shape=mxgraph.aws4.resourceIcon;resIcon=mxgraph.aws4.elastic_load_balancing;sketch=0;shadow=0;" parent="1" vertex="1">
          <mxGeometry x="563" y="220" width="78" height="78" as="geometry" />
        </mxCell>
        <mxCell id="c48P02yQ9ACMctOEPkxW-19" value="" style="edgeStyle=orthogonalEdgeStyle;html=1;endArrow=block;elbow=vertical;startArrow=none;endFill=1;strokeColor=#82b366;rounded=0;entryX=0.5;entryY=0;entryDx=0;entryDy=0;entryPerimeter=0;fillColor=#d5e8d4;sketch=1;" parent="1" source="c48P02yQ9ACMctOEPkxW-17" target="c48P02yQ9ACMctOEPkxW-5" edge="1">
          <mxGeometry width="100" relative="1" as="geometry">
            <mxPoint x="350" y="480" as="sourcePoint" />
            <mxPoint x="450" y="480" as="targetPoint" />
            <Array as="points">
              <mxPoint x="240" y="379" />
              <mxPoint x="170" y="379" />
            </Array>
          </mxGeometry>
        </mxCell>
        <mxCell id="c48P02yQ9ACMctOEPkxW-20" value="" style="edgeStyle=orthogonalEdgeStyle;html=1;endArrow=block;elbow=vertical;startArrow=none;endFill=1;strokeColor=#82b366;rounded=0;exitX=0.75;exitY=1;exitDx=0;exitDy=0;exitPerimeter=0;entryX=0.5;entryY=0;entryDx=0;entryDy=0;entryPerimeter=0;sketch=1;fillColor=#d5e8d4;" parent="1" source="c48P02yQ9ACMctOEPkxW-17" target="c48P02yQ9ACMctOEPkxW-10" edge="1">
          <mxGeometry width="100" relative="1" as="geometry">
            <mxPoint x="410" y="330" as="sourcePoint" />
            <mxPoint x="510" y="330" as="targetPoint" />
          </mxGeometry>
        </mxCell>
        <mxCell id="c48P02yQ9ACMctOEPkxW-21" value="" style="edgeStyle=orthogonalEdgeStyle;html=1;endArrow=block;elbow=vertical;startArrow=none;endFill=1;strokeColor=#6c8ebf;rounded=0;exitX=0.25;exitY=1;exitDx=0;exitDy=0;exitPerimeter=0;entryX=0.5;entryY=0;entryDx=0;entryDy=0;entryPerimeter=0;fillColor=#dae8fc;sketch=1;" parent="1" source="c48P02yQ9ACMctOEPkxW-18" target="c48P02yQ9ACMctOEPkxW-7" edge="1">
          <mxGeometry width="100" relative="1" as="geometry">
            <mxPoint x="620" y="340" as="sourcePoint" />
            <mxPoint x="720" y="340" as="targetPoint" />
            <Array as="points">
              <mxPoint x="583" y="360" />
              <mxPoint x="350" y="360" />
            </Array>
          </mxGeometry>
        </mxCell>
        <mxCell id="c48P02yQ9ACMctOEPkxW-22" value="" style="edgeStyle=orthogonalEdgeStyle;html=1;endArrow=block;elbow=vertical;startArrow=none;endFill=1;strokeColor=#6c8ebf;rounded=0;entryX=0.5;entryY=0;entryDx=0;entryDy=0;entryPerimeter=0;exitX=0.75;exitY=1;exitDx=0;exitDy=0;exitPerimeter=0;sketch=1;fillColor=#dae8fc;" parent="1" source="c48P02yQ9ACMctOEPkxW-18" target="c48P02yQ9ACMctOEPkxW-11" edge="1">
          <mxGeometry width="100" relative="1" as="geometry">
            <mxPoint x="650" y="330" as="sourcePoint" />
            <mxPoint x="750" y="330" as="targetPoint" />
            <Array as="points">
              <mxPoint x="622" y="360" />
              <mxPoint x="692" y="360" />
            </Array>
          </mxGeometry>
        </mxCell>
        <mxCell id="c48P02yQ9ACMctOEPkxW-23" value="" style="edgeStyle=orthogonalEdgeStyle;html=1;endArrow=block;elbow=vertical;startArrow=none;endFill=1;strokeColor=#6c8ebf;rounded=0;exitX=0.5;exitY=1;exitDx=0;exitDy=0;exitPerimeter=0;fillColor=#dae8fc;sketch=1;" parent="1" source="c48P02yQ9ACMctOEPkxW-7" target="c48P02yQ9ACMctOEPkxW-14" edge="1">
          <mxGeometry width="100" relative="1" as="geometry">
            <mxPoint x="420" y="620" as="sourcePoint" />
            <mxPoint x="520" y="620" as="targetPoint" />
          </mxGeometry>
        </mxCell>
        <mxCell id="c48P02yQ9ACMctOEPkxW-28" value="" style="edgeStyle=orthogonalEdgeStyle;html=1;endArrow=block;elbow=vertical;startArrow=none;endFill=1;strokeColor=#6c8ebf;rounded=0;exitX=0.5;exitY=1;exitDx=0;exitDy=0;exitPerimeter=0;sketch=1;fillColor=#dae8fc;" parent="1" source="c48P02yQ9ACMctOEPkxW-11" target="c48P02yQ9ACMctOEPkxW-14" edge="1">
          <mxGeometry width="100" relative="1" as="geometry">
            <mxPoint x="620" y="640" as="sourcePoint" />
            <mxPoint x="720" y="640" as="targetPoint" />
          </mxGeometry>
        </mxCell>
        <mxCell id="c48P02yQ9ACMctOEPkxW-29" value="&lt;b&gt;Elasticache(Redis)&lt;/b&gt;" style="outlineConnect=0;fontColor=#232F3E;gradientColor=none;fillColor=#3334B9;strokeColor=none;dashed=0;verticalLabelPosition=bottom;verticalAlign=top;align=center;html=1;fontSize=12;fontStyle=0;aspect=fixed;pointerEvents=1;shape=mxgraph.aws4.elasticache_for_redis;rounded=0;shadow=0;sketch=0;" parent="1" vertex="1">
          <mxGeometry x="906" y="540" width="78" height="69" as="geometry" />
        </mxCell>
        <mxCell id="c48P02yQ9ACMctOEPkxW-30" value="&lt;b&gt;KMS&lt;/b&gt;" style="points=[[0,0,0],[0.25,0,0],[0.5,0,0],[0.75,0,0],[1,0,0],[0,1,0],[0.25,1,0],[0.5,1,0],[0.75,1,0],[1,1,0],[0,0.25,0],[0,0.5,0],[0,0.75,0],[1,0.25,0],[1,0.5,0],[1,0.75,0]];outlineConnect=0;fontColor=#232F3E;gradientColor=#F54749;gradientDirection=north;fillColor=#C7131F;strokeColor=#ffffff;dashed=0;verticalLabelPosition=bottom;verticalAlign=top;align=center;html=1;fontSize=12;fontStyle=0;aspect=fixed;shape=mxgraph.aws4.resourceIcon;resIcon=mxgraph.aws4.key_management_service;rounded=0;shadow=0;sketch=0;" parent="1" vertex="1">
          <mxGeometry x="906" y="380" width="78" height="78" as="geometry" />
        </mxCell>
        <mxCell id="c48P02yQ9ACMctOEPkxW-39" value="&lt;b&gt;Lamda&lt;/b&gt;" style="points=[[0,0,0],[0.25,0,0],[0.5,0,0],[0.75,0,0],[1,0,0],[0,1,0],[0.25,1,0],[0.5,1,0],[0.75,1,0],[1,1,0],[0,0.25,0],[0,0.5,0],[0,0.75,0],[1,0.25,0],[1,0.5,0],[1,0.75,0]];outlineConnect=0;fontColor=#232F3E;gradientColor=#F78E04;gradientDirection=north;fillColor=#D05C17;strokeColor=#ffffff;dashed=0;verticalLabelPosition=bottom;verticalAlign=top;align=center;html=1;fontSize=12;fontStyle=0;aspect=fixed;shape=mxgraph.aws4.resourceIcon;resIcon=mxgraph.aws4.lambda;rounded=0;shadow=0;sketch=0;" parent="1" vertex="1">
          <mxGeometry x="906" y="228" width="78" height="78" as="geometry" />
        </mxCell>
      </root>
    </mxGraphModel>
  </diagram>
</mxfile>
